<svg width="80" height="23" viewBox="0 0 80 23" fill="none" xmlns="http://www.w3.org/2000/svg">
<path d="M69.434 0H10.566C4.73058 0 0 5.14873 0 11.5C0 17.8513 4.73058 23 10.566 23H69.434C75.2694 23 80 17.8513 80 11.5C80 5.14873 75.2694 0 69.434 0Z" fill="url(#paint0_linear_7896_24245)"/>
<path d="M37.568 15H35.904L36.749 11.204C36.762 11.126 36.801 10.944 36.801 10.788C36.801 10.307 36.385 10.034 35.904 10.034C35.397 10.034 34.916 10.398 34.591 10.762L33.668 15H32.004L32.849 11.204C32.875 11.074 32.914 10.918 32.914 10.749C32.901 10.346 32.576 10.034 31.991 10.034C31.497 10.034 31.016 10.411 30.704 10.762L29.768 15H28.117L29.508 8.721H31.159L30.977 9.54C31.328 9.163 31.965 8.565 32.888 8.565C34.123 8.565 34.617 9.462 34.617 9.696V9.735C35.111 9.124 35.826 8.565 36.788 8.565C37.737 8.565 38.582 9.137 38.582 10.177C38.582 10.333 38.543 10.58 38.517 10.684L37.568 15ZM44.7253 9.553L44.8943 8.721H46.5583L45.1673 15H43.5033L43.6853 14.22C43.1523 14.844 42.5543 15.156 41.8003 15.156C40.3703 15.156 39.4083 14.22 39.4083 12.556C39.4083 10.658 40.5783 8.565 42.7233 8.565C43.5553 8.565 44.3093 8.929 44.7253 9.553ZM41.1373 12.218C41.1373 13.115 41.7353 13.687 42.5283 13.687C43.1133 13.687 43.6333 13.375 43.9713 12.946L44.4523 10.762C44.1793 10.346 43.6463 10.034 42.9833 10.034C41.9043 10.034 41.1373 11.061 41.1373 12.218ZM48.4555 15H46.8045L48.1955 8.721H49.8465L49.6515 9.553C50.2105 8.955 50.8865 8.578 51.8745 8.578L51.5235 10.216C51.4195 10.19 51.1855 10.138 50.9125 10.138C50.3145 10.138 49.7295 10.476 49.3525 10.892L48.4555 15ZM57.6251 15H55.6231L54.4661 12.543L53.4911 13.388L53.1401 15H51.4891L53.4001 6.329H55.0511L53.9201 11.412L56.8321 8.721H58.9381L55.8181 11.568L57.6251 15ZM58.6042 12.335C58.6042 10.294 60.1382 8.565 62.2312 8.565C63.8302 8.565 65.0522 9.618 65.0522 11.373C65.0522 11.737 64.9872 12.179 64.9222 12.387H60.2552V12.543C60.2552 13.076 60.8142 13.843 61.9712 13.843C62.5172 13.843 63.1672 13.674 63.5572 13.375L64.0772 14.506C63.4662 14.922 62.6342 15.156 61.8542 15.156C59.8782 15.156 58.6042 14.09 58.6042 12.335ZM60.4242 11.269H63.5702V11.139C63.5702 10.515 63.1282 9.878 62.1272 9.878C61.2432 9.878 60.5672 10.58 60.4242 11.269ZM66.1928 13.791C66.1928 13.7 66.2058 13.518 66.2448 13.362L66.9468 10.151H65.9068L66.2318 8.721H67.2718L67.6488 7.005H69.3128L68.9358 8.721H70.2098L69.8718 10.151H68.5978L67.9998 12.881C67.9868 12.959 67.9738 13.063 67.9738 13.141C67.9738 13.479 68.1688 13.687 68.5848 13.687C68.7538 13.687 68.9618 13.622 69.0398 13.557L69.1048 14.883C68.8578 15.052 68.4678 15.156 68.0648 15.156C66.9468 15.156 66.1928 14.727 66.1928 13.791Z" fill="#474747"/>
<path d="M24.8956 11.9642V17.5331C24.8993 17.7757 24.8519 18.0164 24.7562 18.2395C24.6606 18.4627 24.519 18.6633 24.3406 18.8284C24.1622 18.9934 23.9509 19.1192 23.7206 19.1975C23.4903 19.2759 23.246 19.305 23.0036 19.2831H20.1485V19.2685H20.0067V14.0198H15.5627V19.2767H15.2091C14.3014 19.2767 13.4165 19.2766 12.5169 19.262C12.2802 19.2818 12.042 19.2525 11.8172 19.1758C11.5924 19.0992 11.386 18.9768 11.211 18.8167C11.036 18.6565 10.8962 18.4619 10.8004 18.2452C10.7045 18.0284 10.6548 17.7943 10.6543 17.5575V11.9886C10.9932 12.0341 11.3322 12.0957 11.6549 12.1104C12.3125 12.1605 12.9715 12.0338 13.5632 11.7432C13.6084 11.7206 13.6584 11.7088 13.709 11.7088C13.7596 11.7088 13.8096 11.7206 13.8549 11.7432C14.4501 12.0224 15.1007 12.1645 15.7585 12.1592C16.4163 12.1538 17.0645 12.0011 17.6552 11.7123C17.6934 11.6934 17.7355 11.6836 17.7782 11.6836C17.8209 11.6836 17.863 11.6934 17.9012 11.7123C18.4892 12.0011 19.135 12.1539 19.7905 12.1593C20.446 12.1646 21.0942 12.0224 21.6869 11.7432C21.7637 11.7081 21.8508 11.7029 21.9313 11.7285C22.8077 12.1511 23.8077 12.244 24.7473 11.9902C24.7925 11.9759 24.8388 11.9656 24.8858 11.9593" fill="#474747"/>
<path d="M25.831 8.40981V8.66828C25.818 8.72678 25.8049 8.7852 25.7935 8.84532C25.7264 9.28352 25.4879 9.67738 25.1303 9.94059C24.6311 10.3043 24.0114 10.4642 23.398 10.3875C22.8124 10.3237 22.2679 10.0569 21.8596 9.63352C21.2988 10.1521 20.5599 10.4362 19.7952 10.4275C19.0305 10.4187 18.2983 10.1176 17.7497 9.58631C17.2021 10.1126 16.4736 10.4103 15.7132 10.4184C14.9528 10.4266 14.218 10.1446 13.6593 9.63025L13.5517 9.72606C13.2461 10.0164 12.8712 10.2242 12.4626 10.3297C12.0539 10.4352 11.625 10.435 11.2165 10.329C10.7613 10.2604 10.3507 10.0182 10.0713 9.65346C9.79187 9.28872 9.6655 8.83 9.71884 8.37411C9.76507 8.10221 9.85185 7.83872 9.97633 7.59245C10.5369 6.3347 11.1171 5.08184 11.6728 3.82571C11.7732 3.58661 11.9241 3.37197 12.1154 3.1964C12.3066 3.02084 12.5337 2.88852 12.7809 2.8085C12.8787 2.77438 12.9814 2.75159 13.0824 2.72559H22.5668C22.5869 2.73801 22.6082 2.74842 22.6304 2.75653C22.9261 2.81056 23.2031 2.93911 23.435 3.12995C23.6669 3.3208 23.846 3.56753 23.9553 3.84684C24.1688 4.34571 24.3937 4.83644 24.5925 5.34181C25.062 6.34184 25.4739 7.36789 25.8261 8.41477" fill="#474747"/>
<defs>
<linearGradient id="paint0_linear_7896_24245" x1="-105.52" y1="-56.764" x2="-88.4627" y2="70.8537" gradientUnits="userSpaceOnUse">
<stop stop-color="#A1F4F4" stop-opacity="0.992"/>
<stop offset="1" stop-color="#E6EFA1"/>
</linearGradient>
</defs>
</svg>
